<svg xmlns="http://www.w3.org/2000/svg" xmlns:xlink="http://www.w3.org/1999/xlink" version="1.1" data-diagram-type="DESCRIPTION" style="width:1676px;height:944px;background:#FFFFFF;" width="1676px" height="944px" viewBox="0 0 1676 944" zoomAndPan="magnify" preserveAspectRatio="none" contentStyleType="text/css"><?plantuml 1.2026.7beta8?><defs/><g font-family="sans-serif" lengthAdjust="spacing"><g class="title" data-source-line="6"><text x="433.059" y="35.421" fill="#000" font-size="22" textLength="808.382" font-weight="700" font-family="Urbanist">Clean Architecture - Arrow Maze Auth Module (JSON Persistence)</text></g><!--cluster Main (Composition Root)--><g class="cluster" data-qualified-name="Main .Composition Root." id="ent0001" data-source-line="9"><rect x="735.5" y="58.609" width="211" height="204.59" fill="#EFEFEF" style="stroke:#000;stroke-width:1;" rx="2.5" ry="2.5"/><text x="743.137" y="73.604" fill="#000" font-size="14" textLength="195.727" font-weight="700" font-family="Urbanist">Main (Composition Root)</text></g><!--cluster Presentation Layer (Express)--><g class="cluster" data-qualified-name="Presentation Layer .Express." id="ent0004" data-source-line="14"><rect x="233.5" y="312.199" width="363" height="220.6" fill="#D4E6F1" style="stroke:#000;stroke-width:1;" rx="2.5" ry="2.5"/><text x="300.105" y="327.194" fill="#000" font-size="14" textLength="229.79" font-weight="700" font-family="Urbanist">Presentation Layer (Express)</text></g><!--cluster Infrastructure Layer (File System & Jobs)--><g class="cluster" data-qualified-name="Infrastructure Layer .File System . Jobs." id="ent0008" data-source-line="20"><rect x="575.5" y="565.799" width="1087" height="97.29" fill="#D5F5E3" style="stroke:#000;stroke-width:1;" rx="2.5" ry="2.5"/><text x="956.852" y="580.794" fill="#000" font-size="14" textLength="324.297" font-weight="700" font-family="Urbanist">Infrastructure Layer (File System &amp; Jobs)</text></g><!--cluster Application Layer (Use Cases)--><g class="cluster" data-qualified-name="Application Layer .Use Cases." id="ent0014" data-source-line="28"><rect x="73.5" y="565.799" width="424" height="255.29" fill="#FCF3CF" style="stroke:#000;stroke-width:1;" rx="2.5" ry="2.5"/><text x="167.655" y="580.794" fill="#000" font-size="14" textLength="235.689" font-weight="700" font-family="Urbanist">Application Layer (Use Cases)</text></g><!--cluster Domain Layer (Core)--><g class="cluster" data-qualified-name="Domain Layer .Core." id="ent0020" data-source-line="37"><rect x="521.5" y="712.089" width="882" height="218.3" fill="#FADBD8" style="stroke:#000;stroke-width:1;" rx="2.5" ry="2.5"/><text x="881.115" y="727.084" fill="#000" font-size="14" textLength="162.771" font-weight="700" font-family="Urbanist">Domain Layer (Core)</text></g><!--entity Index--><g class="entity" data-qualified-name="Main .Composition Root..Index" id="ent0002" data-source-line="10"><rect x="792.61" y="93.609" width="95.781" height="46.297" fill="#FFF" style="stroke:#000;stroke-width:1;" rx="2.5" ry="2.5"/><rect x="868.391" y="98.609" width="15" height="10" fill="#FFF" style="stroke:#000;stroke-width:1;"/><rect x="866.391" y="100.609" width="4" height="2" fill="#FFF" style="stroke:#000;stroke-width:1;"/><rect x="866.391" y="104.609" width="4" height="2" fill="#FFF" style="stroke:#000;stroke-width:1;"/><text x="807.61" y="126.604" fill="#000" font-size="14" textLength="55.781" font-family="Urbanist">index.ts</text></g><!--entity Factory--><g class="entity" data-qualified-name="Main .Composition Root..Factory" id="ent0003" data-source-line="11"><rect x="777.88" y="200.909" width="125.237" height="46.297" fill="#FFF" style="stroke:#000;stroke-width:1;" rx="2.5" ry="2.5"/><rect x="883.117" y="205.909" width="15" height="10" fill="#FFF" style="stroke:#000;stroke-width:1;"/><rect x="881.117" y="207.909" width="4" height="2" fill="#FFF" style="stroke:#000;stroke-width:1;"/><rect x="881.117" y="211.909" width="4" height="2" fill="#FFF" style="stroke:#000;stroke-width:1;"/><text x="792.88" y="233.904" fill="#000" font-size="14" textLength="85.237" font-family="Urbanist">AuthFactory</text></g><!--entity Routes--><g class="entity" data-qualified-name="Presentation Layer .Express..Routes" id="ent0005" data-source-line="15"><rect x="442.81" y="347.199" width="121.375" height="46.297" fill="#FFF" style="stroke:#000;stroke-width:1;" rx="2.5" ry="2.5"/><rect x="544.185" y="352.199" width="15" height="10" fill="#FFF" style="stroke:#000;stroke-width:1;"/><rect x="542.185" y="354.199" width="4" height="2" fill="#FFF" style="stroke:#000;stroke-width:1;"/><rect x="542.185" y="358.199" width="4" height="2" fill="#FFF" style="stroke:#000;stroke-width:1;"/><text x="457.81" y="380.194" fill="#000" font-size="14" textLength="81.375" font-family="Urbanist">AuthRoutes</text></g><!--entity Controller--><g class="entity" data-qualified-name="Presentation Layer .Express..Controller" id="ent0006" data-source-line="16"><rect x="249.51" y="470.499" width="141.985" height="46.297" fill="#FFF" style="stroke:#000;stroke-width:1;" rx="2.5" ry="2.5"/><rect x="371.495" y="475.499" width="15" height="10" fill="#FFF" style="stroke:#000;stroke-width:1;"/><rect x="369.495" y="477.499" width="4" height="2" fill="#FFF" style="stroke:#000;stroke-width:1;"/><rect x="369.495" y="481.499" width="4" height="2" fill="#FFF" style="stroke:#000;stroke-width:1;"/><text x="264.51" y="503.494" fill="#000" font-size="14" textLength="101.985" font-family="Urbanist">AuthController</text></g><!--entity Middleware--><g class="entity" data-qualified-name="Presentation Layer .Express..Middleware" id="ent0007" data-source-line="17"><rect x="426.77" y="470.499" width="153.456" height="46.297" fill="#FFF" style="stroke:#000;stroke-width:1;" rx="2.5" ry="2.5"/><rect x="560.226" y="475.499" width="15" height="10" fill="#FFF" style="stroke:#000;stroke-width:1;"/><rect x="558.226" y="477.499" width="4" height="2" fill="#FFF" style="stroke:#000;stroke-width:1;"/><rect x="558.226" y="481.499" width="4" height="2" fill="#FFF" style="stroke:#000;stroke-width:1;"/><text x="441.77" y="503.494" fill="#000" font-size="14" textLength="113.456" font-family="Urbanist">AuthMiddleware</text></g><!--entity AccRepoImpl--><g class="entity" data-qualified-name="Infrastructure Layer .File System . Jobs..AccRepoImpl" id="ent0009" data-source-line="21"><rect x="1001.15" y="600.799" width="200.706" height="46.297" fill="#FFF" style="stroke:#000;stroke-width:1;" rx="2.5" ry="2.5"/><rect x="1181.856" y="605.799" width="15" height="10" fill="#FFF" style="stroke:#000;stroke-width:1;"/><rect x="1179.856" y="607.799" width="4" height="2" fill="#FFF" style="stroke:#000;stroke-width:1;"/><rect x="1179.856" y="611.799" width="4" height="2" fill="#FFF" style="stroke:#000;stroke-width:1;"/><text x="1016.15" y="633.794" fill="#000" font-size="14" textLength="160.706" font-family="Urbanist">JsonAccountRepository</text></g><!--entity SessRepoImpl--><g class="entity" data-qualified-name="Infrastructure Layer .File System . Jobs..SessRepoImpl" id="ent0010" data-source-line="22"><rect x="1236.83" y="600.799" width="197.35" height="46.297" fill="#FFF" style="stroke:#000;stroke-width:1;" rx="2.5" ry="2.5"/><rect x="1414.18" y="605.799" width="15" height="10" fill="#FFF" style="stroke:#000;stroke-width:1;"/><rect x="1412.18" y="607.799" width="4" height="2" fill="#FFF" style="stroke:#000;stroke-width:1;"/><rect x="1412.18" y="611.799" width="4" height="2" fill="#FFF" style="stroke:#000;stroke-width:1;"/><text x="1251.83" y="633.794" fill="#000" font-size="14" textLength="157.35" font-family="Urbanist">JsonSessionRepository</text></g><!--entity CryptoImpl--><g class="entity" data-qualified-name="Infrastructure Layer .File System . Jobs..CryptoImpl" id="ent0011" data-source-line="23"><rect x="782.39" y="600.799" width="184.218" height="46.297" fill="#FFF" style="stroke:#000;stroke-width:1;" rx="2.5" ry="2.5"/><rect x="946.608" y="605.799" width="15" height="10" fill="#FFF" style="stroke:#000;stroke-width:1;"/><rect x="944.608" y="607.799" width="4" height="2" fill="#FFF" style="stroke:#000;stroke-width:1;"/><rect x="944.608" y="611.799" width="4" height="2" fill="#FFF" style="stroke:#000;stroke-width:1;"/><text x="797.39" y="633.794" fill="#000" font-size="14" textLength="144.218" font-family="Urbanist">BcryptCryptoService</text></g><!--entity TokenImpl--><g class="entity" data-qualified-name="Infrastructure Layer .File System . Jobs..TokenImpl" id="ent0012" data-source-line="24"><rect x="591.74" y="600.799" width="155.521" height="46.297" fill="#FFF" style="stroke:#000;stroke-width:1;" rx="2.5" ry="2.5"/><rect x="727.261" y="605.799" width="15" height="10" fill="#FFF" style="stroke:#000;stroke-width:1;"/><rect x="725.261" y="607.799" width="4" height="2" fill="#FFF" style="stroke:#000;stroke-width:1;"/><rect x="725.261" y="611.799" width="4" height="2" fill="#FFF" style="stroke:#000;stroke-width:1;"/><text x="606.74" y="633.794" fill="#000" font-size="14" textLength="115.521" font-family="Urbanist">JwtTokenService</text></g><!--entity CronJob--><g class="entity" data-qualified-name="Infrastructure Layer .File System . Jobs..CronJob" id="ent0013" data-source-line="25"><rect x="1468.75" y="600.799" width="177.512" height="46.297" fill="#FFF" style="stroke:#000;stroke-width:1;" rx="2.5" ry="2.5"/><rect x="1626.262" y="605.799" width="15" height="10" fill="#FFF" style="stroke:#000;stroke-width:1;"/><rect x="1624.262" y="607.799" width="4" height="2" fill="#FFF" style="stroke:#000;stroke-width:1;"/><rect x="1624.262" y="611.799" width="4" height="2" fill="#FFF" style="stroke:#000;stroke-width:1;"/><text x="1483.75" y="633.794" fill="#000" font-size="14" textLength="137.512" font-family="Urbanist">BlacklistCleanupJob</text></g><!--entity UseCaseReg--><g class="entity" data-qualified-name="Application Layer .Use Cases..UseCaseReg" id="ent0015" data-source-line="29"><rect x="325.98" y="600.799" width="155.042" height="46.297" fill="#FFF" style="stroke:#000;stroke-width:1;" rx="2.5" ry="2.5"/><rect x="461.022" y="605.799" width="15" height="10" fill="#FFF" style="stroke:#000;stroke-width:1;"/><rect x="459.022" y="607.799" width="4" height="2" fill="#FFF" style="stroke:#000;stroke-width:1;"/><rect x="459.022" y="611.799" width="4" height="2" fill="#FFF" style="stroke:#000;stroke-width:1;"/><text x="340.98" y="633.794" fill="#000" font-size="14" textLength="115.042" font-family="Urbanist">RegisterAccount</text></g><!--entity UseCaseLog--><g class="entity" data-qualified-name="Application Layer .Use Cases..UseCaseLog" id="ent0016" data-source-line="30"><rect x="89.49" y="600.799" width="78.015" height="46.297" fill="#FFF" style="stroke:#000;stroke-width:1;" rx="2.5" ry="2.5"/><rect x="147.505" y="605.799" width="15" height="10" fill="#FFF" style="stroke:#000;stroke-width:1;"/><rect x="145.505" y="607.799" width="4" height="2" fill="#FFF" style="stroke:#000;stroke-width:1;"/><rect x="145.505" y="611.799" width="4" height="2" fill="#FFF" style="stroke:#000;stroke-width:1;"/><text x="104.49" y="633.794" fill="#000" font-size="14" textLength="38.015" font-family="Urbanist">Login</text></g><!--entity UseCaseOut--><g class="entity" data-qualified-name="Application Layer .Use Cases..UseCaseOut" id="ent0017" data-source-line="31"><rect x="202.41" y="600.799" width="88.18" height="46.297" fill="#FFF" style="stroke:#000;stroke-width:1;" rx="2.5" ry="2.5"/><rect x="270.59" y="605.799" width="15" height="10" fill="#FFF" style="stroke:#000;stroke-width:1;"/><rect x="268.59" y="607.799" width="4" height="2" fill="#FFF" style="stroke:#000;stroke-width:1;"/><rect x="268.59" y="611.799" width="4" height="2" fill="#FFF" style="stroke:#000;stroke-width:1;"/><text x="217.41" y="633.794" fill="#000" font-size="14" textLength="48.18" font-family="Urbanist">Logout</text></g><!--entity ICrypto--><g class="entity" data-qualified-name="Application Layer .Use Cases..ICrypto" id="ent0018" data-source-line="33"><ellipse cx="297.5" cy="776.089" rx="8" ry="8" fill="#FFF" style="stroke:#000;stroke-width:1;"/><text x="246.186" y="806.084" fill="#000" font-size="14" textLength="102.628" font-family="Urbanist">ICryptoService</text></g><!--entity IToken--><g class="entity" data-qualified-name="Application Layer .Use Cases..IToken" id="ent0019" data-source-line="34"><ellipse cx="146.5" cy="776.089" rx="8" ry="8" fill="#FFF" style="stroke:#000;stroke-width:1;"/><text x="97.209" y="806.084" fill="#000" font-size="14" textLength="98.581" font-family="Urbanist">ITokenService</text></g><!--entity Account--><g class="entity" data-qualified-name="Domain Layer .Core..Account" id="ent0021" data-source-line="38"><rect x="537.45" y="752.939" width="142.095" height="46.297" fill="#FFF" style="stroke:#000;stroke-width:1;" rx="2.5" ry="2.5"/><rect x="659.545" y="757.939" width="15" height="10" fill="#FFF" style="stroke:#000;stroke-width:1;"/><rect x="657.545" y="759.939" width="4" height="2" fill="#FFF" style="stroke:#000;stroke-width:1;"/><rect x="657.545" y="763.939" width="4" height="2" fill="#FFF" style="stroke:#000;stroke-width:1;"/><text x="552.45" y="785.934" fill="#000" font-size="14" textLength="102.095" font-family="Urbanist">Account Entity</text></g><!--entity Session--><g class="entity" data-qualified-name="Domain Layer .Core..Session" id="ent0022" data-source-line="39"><rect x="714.13" y="752.939" width="138.738" height="46.297" fill="#FFF" style="stroke:#000;stroke-width:1;" rx="2.5" ry="2.5"/><rect x="832.868" y="757.939" width="15" height="10" fill="#FFF" style="stroke:#000;stroke-width:1;"/><rect x="830.868" y="759.939" width="4" height="2" fill="#FFF" style="stroke:#000;stroke-width:1;"/><rect x="830.868" y="763.939" width="4" height="2" fill="#FFF" style="stroke:#000;stroke-width:1;"/><text x="729.13" y="785.934" fill="#000" font-size="14" textLength="98.738" font-family="Urbanist">Session Entity</text></g><!--entity Email--><g class="entity" data-qualified-name="Domain Layer .Core..Email" id="ent0023" data-source-line="40"><rect x="537.56" y="868.089" width="103.889" height="46.297" fill="#FFF" style="stroke:#000;stroke-width:1;" rx="2.5" ry="2.5"/><rect x="621.449" y="873.089" width="15" height="10" fill="#FFF" style="stroke:#000;stroke-width:1;"/><rect x="619.449" y="875.089" width="4" height="2" fill="#FFF" style="stroke:#000;stroke-width:1;"/><rect x="619.449" y="879.089" width="4" height="2" fill="#FFF" style="stroke:#000;stroke-width:1;"/><text x="552.56" y="901.084" fill="#000" font-size="14" textLength="63.889" font-family="Urbanist">Email VO</text></g><!--entity Password--><g class="entity" data-qualified-name="Domain Layer .Core..Password" id="ent0024" data-source-line="41"><rect x="887.84" y="752.939" width="131.314" height="46.297" fill="#FFF" style="stroke:#000;stroke-width:1;" rx="2.5" ry="2.5"/><rect x="999.154" y="757.939" width="15" height="10" fill="#FFF" style="stroke:#000;stroke-width:1;"/><rect x="997.154" y="759.939" width="4" height="2" fill="#FFF" style="stroke:#000;stroke-width:1;"/><rect x="997.154" y="763.939" width="4" height="2" fill="#FFF" style="stroke:#000;stroke-width:1;"/><text x="902.84" y="785.934" fill="#000" font-size="14" textLength="91.314" font-family="Urbanist">Password VO</text></g><!--entity IAccRepo--><g class="entity" data-qualified-name="Domain Layer .Core..IAccRepo" id="ent0025" data-source-line="43"><ellipse cx="1129.5" cy="776.089" rx="8" ry="8" fill="#FFF" style="stroke:#000;stroke-width:1;"/><text x="1061.513" y="806.084" fill="#000" font-size="14" textLength="135.974" font-family="Urbanist">IAccountRepository</text></g><!--entity ISessRepo--><g class="entity" data-qualified-name="Domain Layer .Core..ISessRepo" id="ent0026" data-source-line="44"><ellipse cx="1313.5" cy="776.089" rx="8" ry="8" fill="#FFF" style="stroke:#000;stroke-width:1;"/><text x="1247.191" y="806.084" fill="#000" font-size="14" textLength="132.617" font-family="Urbanist">ISessionRepository</text></g><!--link Index to Factory--><g class="link" data-entity-1="ent0002" data-entity-2="ent0003" id="lnk27" data-source-line="50" data-link-type="dependency"><path d="M840.5,140.349 C840.5,158.109 840.5,177.749 840.5,195.499" style="stroke:#000;stroke-width:1;" fill="none" id="Index-to-Factory"/><polygon points="840.5,200.499,844.5,191.499,840.5,195.499,836.5,191.499,840.5,200.499" fill="#000" style="stroke:#000;stroke-width:1;stroke-linejoin:miter;stroke-miterlimit:10;"/></g><!--link Factory to Routes--><g class="link" data-entity-1="ent0003" data-entity-2="ent0005" id="lnk28" data-source-line="51" data-link-type="dependency"><path d="M777.78,234.529 C734.18,242.639 675.51,256.669 627.5,279.199 C589.91,296.839 555.883,323.202 532.073,343.652" style="stroke:#000;stroke-width:1;stroke-dasharray:7,7;" fill="none" id="Factory-to-Routes"/><polygon points="528.28,346.909,537.714,344.08,532.073,343.652,532.501,338.011,528.28,346.909" fill="#000" style="stroke:#000;stroke-width:1;stroke-linejoin:miter;stroke-miterlimit:10;"/><text x="628.5" y="292.266" fill="#000" font-size="13" textLength="28.457" font-family="Urbanist">crea</text></g><!--link Factory to AccRepoImpl--><g class="link" data-entity-1="ent0003" data-entity-2="ent0009" id="lnk29" data-source-line="52" data-link-type="dependency"><path d="M855.28,247.589 C901.22,317.619 1038.428,526.778 1084.138,596.478" style="stroke:#000;stroke-width:1;stroke-dasharray:7,7;" fill="none" id="Factory-to-AccRepoImpl"/><polygon points="1086.88,600.659,1085.289,590.94,1084.138,596.478,1078.6,595.327,1086.88,600.659" fill="#000" style="stroke:#000;stroke-width:1;stroke-linejoin:miter;stroke-miterlimit:10;"/><text x="982.5" y="436.566" fill="#000" font-size="13" textLength="58.652" font-family="Urbanist">instancia</text></g><!--link Factory to CronJob--><g class="link" data-entity-1="ent0003" data-entity-2="ent0013" id="lnk30" data-source-line="53" data-link-type="dependency"><path d="M883.9,247.679 C984.56,300.389 1241.4,436.139 1451.5,557.799 C1475.24,571.539 1497.27,585.03 1517.72,597.81" style="stroke:#000;stroke-width:1;stroke-dasharray:7,7;" fill="none" id="Factory-to-CronJob"/><polygon points="1521.96,600.459,1516.448,592.298,1517.72,597.81,1512.208,599.082,1521.96,600.459" fill="#000" style="stroke:#000;stroke-width:1;stroke-linejoin:miter;stroke-miterlimit:10;"/><text x="1243.5" y="436.566" fill="#000" font-size="13" textLength="49.975" font-family="Urbanist">arranca</text></g><!--link Factory to UseCaseReg--><g class="link" data-entity-1="ent0003" data-entity-2="ent0015" id="lnk31" data-source-line="54" data-link-type="dependency"><path d="M828.69,247.319 C797.75,303.739 708.9,453.989 596.5,540.799 C562.2,567.279 522.797,585.213 485.407,598.613" style="stroke:#000;stroke-width:1;stroke-dasharray:7,7;" fill="none" id="Factory-to-UseCaseReg"/><polygon points="480.7,600.299,490.522,601.029,485.407,598.613,487.823,593.498,480.7,600.299" fill="#000" style="stroke:#000;stroke-width:1;stroke-linejoin:miter;stroke-miterlimit:10;"/><text x="711.5" y="436.566" fill="#000" font-size="13" textLength="63.47" font-family="Urbanist">ensambla</text></g><!--link Routes to Controller--><g class="link" data-entity-1="ent0005" data-entity-2="ent0006" id="lnk32" data-source-line="57" data-link-type="dependency"><path d="M469.51,393.879 C436.74,415.599 391.598,445.528 358.788,467.268" style="stroke:#000;stroke-width:1;" fill="none" id="Routes-to-Controller"/><polygon points="354.62,470.029,364.332,468.393,358.788,467.268,359.913,461.724,354.62,470.029" fill="#000" style="stroke:#000;stroke-width:1;stroke-linejoin:miter;stroke-miterlimit:10;"/></g><!--link Routes to Middleware--><g class="link" data-entity-1="ent0005" data-entity-2="ent0007" id="lnk33" data-source-line="58" data-link-type="dependency"><path d="M503.5,393.879 C503.5,415.669 503.5,443.489 503.5,465.239" style="stroke:#000;stroke-width:1;" fill="none" id="Routes-to-Middleware"/><polygon points="503.5,470.239,507.5,461.239,503.5,465.239,499.5,461.239,503.5,470.239" fill="#000" style="stroke:#000;stroke-width:1;stroke-linejoin:miter;stroke-miterlimit:10;"/></g><!--link Controller to UseCaseReg--><g class="link" data-entity-1="ent0006" data-entity-2="ent0015" id="lnk34" data-source-line="59" data-link-type="dependency"><path d="M335.15,517.289 C350.32,540.739 371.164,572.961 386.284,596.331" style="stroke:#000;stroke-width:1;" fill="none" id="Controller-to-UseCaseReg"/><polygon points="389,600.529,387.47,590.8,386.284,596.331,380.753,595.146,389,600.529" fill="#000" style="stroke:#000;stroke-width:1;stroke-linejoin:miter;stroke-miterlimit:10;"/></g><!--link Controller to UseCaseLog--><g class="link" data-entity-1="ent0006" data-entity-2="ent0016" id="lnk35" data-source-line="60" data-link-type="dependency"><path d="M257.46,517.279 C233.35,527.589 206.4,541.219 184.5,557.799 C168.68,569.769 157.192,582.881 146.912,596.571" style="stroke:#000;stroke-width:1;" fill="none" id="Controller-to-UseCaseLog"/><polygon points="143.91,600.569,152.513,595.774,146.912,596.571,146.116,590.971,143.91,600.569" fill="#000" style="stroke:#000;stroke-width:1;stroke-linejoin:miter;stroke-miterlimit:10;"/></g><!--link Controller to UseCaseOut--><g class="link" data-entity-1="ent0006" data-entity-2="ent0017" id="lnk36" data-source-line="61" data-link-type="dependency"><path d="M307.44,517.289 C293.92,540.739 275.408,572.828 261.928,596.198" style="stroke:#000;stroke-width:1;" fill="none" id="Controller-to-UseCaseOut"/><polygon points="259.43,600.529,267.392,594.732,261.928,596.198,260.462,590.735,259.43,600.529" fill="#000" style="stroke:#000;stroke-width:1;stroke-linejoin:miter;stroke-miterlimit:10;"/></g><!--link Middleware to IToken--><g class="link" data-entity-1="ent0007" data-entity-2="ent0019" id="lnk37" data-source-line="62" data-link-type="dependency"><path d="M466.02,517.179 C449.06,526.219 428.39,535.689 408.5,540.799 C372.19,550.119 97.34,530.629 71.5,557.799 C11,621.419 106.465,732.517 135.465,763.537" style="stroke:#000;stroke-width:1;" fill="none" id="Middleware-to-IToken"/><polygon points="138.88,767.189,135.656,757.883,135.465,763.537,129.812,763.347,138.88,767.189" fill="#000" style="stroke:#000;stroke-width:1;stroke-linejoin:miter;stroke-miterlimit:10;"/></g><!--link Middleware to ISessRepo--><g class="link" data-entity-1="ent0007" data-entity-2="ent0026" id="lnk38" data-source-line="63" data-link-type="dependency"><path d="M505.14,517.279 C509.32,556.329 524.04,635.569 575.5,671.089 C590.23,681.259 879.63,678.129 897.5,679.089 C989.24,684.009 1011.89,689.229 1103.5,696.089 C1129.93,698.069 1197.74,694.639 1222.5,704.089 C1259.19,718.109 1289.678,748.578 1303.528,763.828" style="stroke:#000;stroke-width:1;" fill="none" id="Middleware-to-ISessRepo"/><polygon points="1306.89,767.529,1303.8,758.178,1303.528,763.828,1297.878,763.556,1306.89,767.529" fill="#000" style="stroke:#000;stroke-width:1;stroke-linejoin:miter;stroke-miterlimit:10;"/></g><!--link AccRepoImpl to IAccRepo--><g class="link" data-entity-1="ent0009" data-entity-2="ent0025" id="lnk39" data-source-line="66" data-link-type="extension"><path d="M1105.69,647.419 C1112.07,681.619 1120.601,727.374 1124.731,749.524" style="stroke:#000;stroke-width:1;stroke-dasharray:7,7;" fill="none" id="AccRepoImpl-to-IAccRepo"/><polygon points="1128.03,767.219,1130.629,748.425,1118.832,750.624,1128.03,767.219" fill="none" style="stroke:#000;stroke-width:1;stroke-linejoin:miter;stroke-miterlimit:10;"/><text x="1119.632" y="692.156" fill="#000" font-size="13" textLength="76.908" font-family="Urbanist">implements</text></g><!--link SessRepoImpl to ISessRepo--><g class="link" data-entity-1="ent0010" data-entity-2="ent0026" id="lnk40" data-source-line="67" data-link-type="extension"><path d="M1332.21,647.419 C1327.2,681.619 1320.505,727.259 1317.265,749.409" style="stroke:#000;stroke-width:1;stroke-dasharray:7,7;" fill="none" id="SessRepoImpl-to-ISessRepo"/><polygon points="1314.66,767.219,1323.202,750.277,1311.328,748.54,1314.66,767.219" fill="none" style="stroke:#000;stroke-width:1;stroke-linejoin:miter;stroke-miterlimit:10;"/><text x="1331.632" y="692.156" fill="#000" font-size="13" textLength="76.908" font-family="Urbanist">implements</text></g><!--link CryptoImpl to ICrypto--><g class="link" data-entity-1="ent0011" data-entity-2="ent0018" id="lnk41" data-source-line="68" data-link-type="extension"><path d="M828.35,647.489 C809.03,656.079 786.08,665.209 764.5,671.089 C659.35,699.749 627.84,680.209 521.5,704.089 C435.92,723.319 352.908,753.914 323.128,765.274" style="stroke:#000;stroke-width:1;stroke-dasharray:7,7;" fill="none" id="CryptoImpl-to-ICrypto"/><polygon points="306.31,771.689,325.266,770.88,320.989,759.668,306.31,771.689" fill="none" style="stroke:#000;stroke-width:1;stroke-linejoin:miter;stroke-miterlimit:10;"/><text x="734.632" y="692.156" fill="#000" font-size="13" textLength="76.908" font-family="Urbanist">implements</text></g><!--link TokenImpl to IToken--><g class="link" data-entity-1="ent0012" data-entity-2="ent0019" id="lnk42" data-source-line="69" data-link-type="extension"><path d="M594.69,647.519 C564.7,655.909 529.68,664.889 497.5,671.089 C376.2,694.489 333.35,651.639 221.5,704.089 C190.01,718.859 173.827,737.506 162.677,752.706" style="stroke:#000;stroke-width:1;stroke-dasharray:7,7;" fill="none" id="TokenImpl-to-IToken"/><polygon points="152.03,767.219,167.515,756.254,157.839,749.157,152.03,767.219" fill="none" style="stroke:#000;stroke-width:1;stroke-linejoin:miter;stroke-miterlimit:10;"/><text x="301.632" y="692.156" fill="#000" font-size="13" textLength="76.908" font-family="Urbanist">implements</text></g><!--link CronJob to ISessRepo--><g class="link" data-entity-1="ent0013" data-entity-2="ent0026" id="lnk43" data-source-line="70" data-link-type="dependency"><path d="M1520.71,647.589 C1462.93,683.139 1358.479,747.42 1326.699,766.97" style="stroke:#000;stroke-width:1;" fill="none" id="CronJob-to-ISessRepo"/><polygon points="1322.44,769.589,1332.202,768.281,1326.699,766.97,1328.01,761.467,1322.44,769.589" fill="#000" style="stroke:#000;stroke-width:1;stroke-linejoin:miter;stroke-miterlimit:10;"/><text x="1469.632" y="692.156" fill="#000" font-size="13" textLength="22.979" font-family="Urbanist">usa</text></g><!--link UseCaseReg to IAccRepo--><g class="link" data-entity-1="ent0015" data-entity-2="ent0025" id="lnk44" data-source-line="73" data-link-type="dependency"><path d="M446.55,647.579 C466.12,656.699 489.91,666.199 512.5,671.089 C579.42,685.579 752.34,672.609 820.5,679.089 C866.69,683.479 877.42,690.669 923.5,696.089 C948.5,699.029 1012.95,695.189 1036.5,704.089 C1073.74,718.169 1105.055,748.657 1119.295,763.887" style="stroke:#000;stroke-width:1;" fill="none" id="UseCaseReg-to-IAccRepo"/><polygon points="1122.71,767.539,1119.485,758.233,1119.295,763.887,1113.641,763.697,1122.71,767.539" fill="#000" style="stroke:#000;stroke-width:1;stroke-linejoin:miter;stroke-miterlimit:10;"/></g><!--link UseCaseReg to ICrypto--><g class="link" data-entity-1="ent0015" data-entity-2="ent0018" id="lnk45" data-source-line="74" data-link-type="dependency"><path d="M387.63,647.419 C363.49,681.619 321.573,740.984 305.943,763.134" style="stroke:#000;stroke-width:1;" fill="none" id="UseCaseReg-to-ICrypto"/><polygon points="303.06,767.219,311.517,762.172,305.943,763.134,304.981,757.56,303.06,767.219" fill="#000" style="stroke:#000;stroke-width:1;stroke-linejoin:miter;stroke-miterlimit:10;"/></g><!--link UseCaseReg to Account--><g class="link" data-entity-1="ent0015" data-entity-2="ent0021" id="lnk46" data-source-line="75" data-link-type="dependency"><path d="M434.19,647.419 C472.84,675.729 534.827,721.125 573.567,749.505" style="stroke:#000;stroke-width:1;" fill="none" id="UseCaseReg-to-Account"/><polygon points="577.6,752.459,572.704,743.914,573.567,749.505,567.976,750.367,577.6,752.459" fill="#000" style="stroke:#000;stroke-width:1;stroke-linejoin:miter;stroke-miterlimit:10;"/></g><!--link UseCaseReg to Email--><g class="link" data-entity-1="ent0015" data-entity-2="ent0023" id="lnk47" data-source-line="76" data-link-type="dependency"><path d="M415.1,647.519 C439.1,693.869 494.11,797.989 519.5,829.089 C531.14,843.339 542.415,853.869 555.645,864.659" style="stroke:#000;stroke-width:1;" fill="none" id="UseCaseReg-to-Email"/><polygon points="559.52,867.819,555.074,859.031,555.645,864.659,550.017,865.231,559.52,867.819" fill="#000" style="stroke:#000;stroke-width:1;stroke-linejoin:miter;stroke-miterlimit:10;"/></g><!--link UseCaseReg to Password--><g class="link" data-entity-1="ent0015" data-entity-2="ent0024" id="lnk48" data-source-line="77" data-link-type="dependency"><path d="M446.33,647.559 C482.88,666.399 532.86,690.959 554.5,696.089 C588.68,704.199 837.71,691.509 870.5,704.089 C896.35,714.009 916.346,732.011 931.646,748.831" style="stroke:#000;stroke-width:1;" fill="none" id="UseCaseReg-to-Password"/><polygon points="935.01,752.529,931.913,743.18,931.646,748.831,925.995,748.563,935.01,752.529" fill="#000" style="stroke:#000;stroke-width:1;stroke-linejoin:miter;stroke-miterlimit:10;"/></g><!--link UseCaseLog to IAccRepo--><g class="link" data-entity-1="ent0016" data-entity-2="ent0025" id="lnk49" data-source-line="79" data-link-type="dependency"><path d="M148.93,647.359 C158.71,656.489 171.18,666.069 184.5,671.089 C210.61,680.939 407.66,677.169 435.5,679.089 C506.84,684.009 524.13,691.659 595.5,696.089 C619.96,697.609 1013.36,696.029 1036.5,704.089 C1074.1,717.189 1105.275,748.151 1119.405,763.681" style="stroke:#000;stroke-width:1;" fill="none" id="UseCaseLog-to-IAccRepo"/><polygon points="1122.77,767.379,1119.672,758.031,1119.405,763.681,1113.755,763.414,1122.77,767.379" fill="#000" style="stroke:#000;stroke-width:1;stroke-linejoin:miter;stroke-miterlimit:10;"/></g><!--link UseCaseLog to ICrypto--><g class="link" data-entity-1="ent0016" data-entity-2="ent0018" id="lnk50" data-source-line="80" data-link-type="dependency"><path d="M155.65,647.479 C174.35,663.139 199.67,684.619 221.5,704.089 C246.84,726.689 272.341,750.928 286.021,764.048" style="stroke:#000;stroke-width:1;" fill="none" id="UseCaseLog-to-ICrypto"/><polygon points="289.63,767.509,285.903,758.393,286.021,764.048,280.366,764.167,289.63,767.509" fill="#000" style="stroke:#000;stroke-width:1;stroke-linejoin:miter;stroke-miterlimit:10;"/></g><!--link UseCaseLog to IToken--><g class="link" data-entity-1="ent0016" data-entity-2="ent0019" id="lnk51" data-source-line="81" data-link-type="dependency"><path d="M131.2,647.419 C135.3,681.619 142.304,740.105 144.964,762.255" style="stroke:#000;stroke-width:1;" fill="none" id="UseCaseLog-to-IToken"/><polygon points="145.56,767.219,148.458,757.807,144.964,762.255,140.515,758.761,145.56,767.219" fill="#000" style="stroke:#000;stroke-width:1;stroke-linejoin:miter;stroke-miterlimit:10;"/></g><!--link UseCaseLog to Email--><g class="link" data-entity-1="ent0016" data-entity-2="ent0023" id="lnk52" data-source-line="82" data-link-type="dependency"><path d="M150.35,647.449 C160.02,656.139 172.02,665.359 184.5,671.089 C223.44,688.979 340.08,678.569 374.5,704.089 C424.48,741.139 391.69,786.999 437.5,829.089 C465.36,854.689 500.477,868.845 532.427,877.835" style="stroke:#000;stroke-width:1;" fill="none" id="UseCaseLog-to-Email"/><polygon points="537.24,879.189,529.66,872.901,532.427,877.835,527.493,880.602,537.24,879.189" fill="#000" style="stroke:#000;stroke-width:1;stroke-linejoin:miter;stroke-miterlimit:10;"/></g><!--link UseCaseOut to IToken--><g class="link" data-entity-1="ent0017" data-entity-2="ent0019" id="lnk53" data-source-line="84" data-link-type="dependency"><path d="M231.53,647.419 C208.76,681.619 169.261,740.908 154.511,763.058" style="stroke:#000;stroke-width:1;" fill="none" id="UseCaseOut-to-IToken"/><polygon points="151.74,767.219,160.058,761.945,154.511,763.058,153.399,757.511,151.74,767.219" fill="#000" style="stroke:#000;stroke-width:1;stroke-linejoin:miter;stroke-miterlimit:10;"/></g><!--link UseCaseOut to ISessRepo--><g class="link" data-entity-1="ent0017" data-entity-2="ent0026" id="lnk54" data-source-line="85" data-link-type="dependency"><path d="M269.53,647.359 C280.44,656.499 294.19,666.079 308.5,671.089 C332.95,679.659 515.74,676.359 541.5,679.089 C584.16,683.619 593.8,692.009 636.5,696.089 C668.91,699.189 1191.79,693.289 1222.5,704.089 C1259.55,717.119 1289.899,748.073 1303.639,763.623" style="stroke:#000;stroke-width:1;" fill="none" id="UseCaseOut-to-ISessRepo"/><polygon points="1306.95,767.369,1303.988,757.976,1303.639,763.623,1297.993,763.274,1306.95,767.369" fill="#000" style="stroke:#000;stroke-width:1;stroke-linejoin:miter;stroke-miterlimit:10;"/></g><!--link Account to Email--><g class="link" data-entity-1="ent0021" data-entity-2="ent0023" id="lnk55" data-source-line="88" data-link-type="dependency"><path d="M604.7,799.719 C601.39,819.449 597.44,842.999 594.12,862.729" style="stroke:#000;stroke-width:1;" fill="none" id="Account-to-Email"/><polygon points="593.29,867.659,598.728,859.448,594.12,862.729,590.839,858.12,593.29,867.659" fill="#000" style="stroke:#000;stroke-width:1;stroke-linejoin:miter;stroke-miterlimit:10;"/></g><?plantuml-src RLRBRjim4BphAxOkq2Q7E6ZJ54KF0HHP1Xmajc4t1OgY1qPY4Y8KgP9K7VVnLVs4_bYN3qcqR3YmnTdnahCxNEU5UQGLXPeJ9XBzn4HD5AcWa5Kj1HLcRRQSGbFnjr6q9iKJUQ0-fcXXY7ZWD29Cw3rfk9bAOUO4qz-gEoAODabYcC7lP9mI0Qag7fd1hpUAmWakbTp03Vb98MtC8zp8ia7kqTLwCOSbLHeJK57GuoHv3ISd9v2botHjdv9m81ZTe0muokpfDJDC2bX9QOv7y3AVsXVyIW2-Cb7Ivx7Htu1ecDc5HUscKr8OgROk49wJFqcVVwcengeGb_gQRAc2e_ovHbJRJIRlylVJDtuJcsub6qFzDlwn3MHO6IKvfye5-sLBk65boUc6AEe8_NBdE3DnhuWsgl4r30UQCYpRUelLgk0LNCaxVxRpwNb-vizsfQL8Yq8smgoeArKh6b6BpAgQjyGrYaEv0w95O-PbeRQroUoRN5FrWnN-v1xfyctC9_b4HSnmG9U6epQEdNOMQMeyVKWZ1Jxlg4_hchDYfnUt6ir5D7MAfzdqB0ijNz47QnyLLBkSIBPS35d6jNnW8iOH23YsBWui6eC1_6C2CzwJmdPYH_d86Sj30ruitzCSiYDi8Ylhuw0fauewEUdaSl8XcClBW5pWXUewPo4R3HsBem6oqHoJS_YySBXRM7H9jDv8LRQ1ThslTCyuNaPmpe2yPnvFRjrZPVlBlCglqsoscETh-0AJV9dF9_aycuKBZYHtjPdOsd43HfOoSJSNmnVTLGsVC2xbHemlmgM3Zp0g52MZlNZaTajYGkCeAzW1Pl2VPH6ba7I0q_l9qgZGfBhZoCF3jtEZOF_-2k2SL0G8fCw_3al2KQsQQ1f4Q3G2UeABH3u-7B5EFXonLkuJkqZmun3jEePgtDYXxTmXmB1--2k2-l270xSXHceeQQpl53tD19D9NFBn-FT5PnnRipwJ7YNnX0dK5jhZzbCcC3smn-jcJQ2vzO5iljaxmXshqRwVaJAGwdk3nI0sA4gvMu8W-pHkTUGJjqDxSuPuc1y3kBtd0zXVv07ONUAaTyB1FJjyTyyEzfuOe7xBfBVI0Mw7nlu9HMd_oqZQQTOb_Gy0?></g></svg>